<svg xmlns="http://www.w3.org/2000/svg" width="42" height="42" viewBox="0 0 42 42">
    <g fill="none" fill-rule="evenodd" transform="translate(-.356 -.45)">
        <circle cx="21.424" cy="21.067" r="20.5" fill="#00dfa5"/>
        <path fill="#FFF" d="M28.424 14.067a3.547 3.547 0 0 0-5.02 0l-9.205 9.201a.46.46 0 0 0-.13.264l-.682 5.051c-.02.144.03.288.13.388a.468.468 0 0 0 .326.137c.02 0 .04 0 .061-.004l3.043-.411a.463.463 0 1 0-.123-.918l-2.44.329.476-3.523 3.708 3.708a.454.454 0 0 0 .651 0l9.205-9.202a3.528 3.528 0 0 0 1.042-2.512c0-.949-.37-1.84-1.042-2.508zm-4.842 1.13l1.545 1.546-8.399 8.4-1.546-1.546 8.4-8.4zM18.897 27.31l-1.511-1.512 8.4-8.4 1.51 1.512-8.399 8.4zm9.044-9.061l-3.698-3.698c.47-.387 1.056-.6 1.673-.6a2.619 2.619 0 0 1 2.624 2.625 2.61 2.61 0 0 1-.6 1.673z"/>
    </g>
</svg>
