<svg xmlns="http://www.w3.org/2000/svg" xmlns:xlink="http://www.w3.org/1999/xlink" width="16" height="16" viewBox="0 0 16 16">
    <defs>
        <path id="a" d="M15.948 7.39l-1.404-3.494c-.203-.504-.448-.734-1.04-.734-.498 0-.865.43-.978.735-.73 1.963-1.457 3.925-2.186 5.888L8.36 6.153a.86.86 0 0 0-.741-.477c-.367-.085-.759.031-.982.477l-1.845 3.69-1.578-1.895c-.364-.436-.833-.391-1.182-.135a1.348 1.348 0 0 0-.386.337L.149 10.147c-.328.437-.072 1.114.357 1.366.511.298 1.04.075 1.366-.358l.676-.901 1.75 2.1c.262.314.578.368.867.288.273-.021.534-.159.7-.49L7.537 8.81l2.094 3.842c.409.748 1.29.552 1.669.01.096-.099.177-.222.234-.374.68-1.83 1.359-3.66 2.037-5.491l.452 1.124c.203.504.657.854 1.226.697.482-.133.901-.722.699-1.228z"/>
    </defs>
    <g fill="none" fill-rule="evenodd">
        <mask id="b" fill="#fff">
            <use xlink:href="#a"/>
        </mask>
        <use fill="#FFF" xlink:href="#a"/>
        <g fill="#fff" mask="url(#b)">
            <path d="M0 0h16v16H0z"/>
        </g>
    </g>
</svg>
