<?xml version="1.0" encoding="iso-8859-1"?>
<!-- Generator: Adobe Illustrator 19.0.0, SVG Export Plug-In . SVG Version: 6.00 Build 0)  -->
<svg version="1.1" id="Capa_1" xmlns="http://www.w3.org/2000/svg" xmlns:xlink="http://www.w3.org/1999/xlink" x="0px" y="0px"
	 viewBox="0 0 512 512" style="enable-background:new 0 0 512 512;" xml:space="preserve">
<g>
	<g>
		<path d="M500.647,211.454l-25.536-6.138c-5.596-24.404-15.088-47.358-28.301-68.467l12.964-21.621
			c3.545-5.903,2.607-13.462-2.256-18.325l-42.422-42.422c-4.863-4.863-12.407-5.801-18.325-2.256L375.15,65.189
			c-21.108-13.213-44.063-22.705-68.467-28.301l-6.138-25.536C298.876,4.688,292.885,0,286,0h-60
			c-6.885,0-12.876,4.688-14.546,11.353l-6.138,25.536c-24.404,5.596-47.358,15.088-68.467,28.301l-21.621-12.964
			c-5.918-3.545-13.447-2.607-18.325,2.256L54.481,96.903c-4.863,4.863-5.801,12.422-2.256,18.325l12.964,21.621
			c-13.213,21.108-22.705,44.063-28.301,68.467l-25.536,6.138C4.688,213.124,0,219.115,0,226v60c0,6.885,4.688,12.876,11.353,14.546
			l25.536,6.138c5.596,24.404,15.088,47.358,28.301,68.467l-12.964,21.621c-3.545,5.903-2.607,13.462,2.256,18.325l42.422,42.422
			c4.849,4.893,12.407,5.786,18.325,2.256l21.621-12.964c21.108,13.213,44.063,22.705,68.467,28.301l6.138,25.536
			C213.124,507.313,219.115,512,226,512h60c6.885,0,12.876-4.688,14.546-11.353l6.138-25.536
			c24.404-5.596,47.358-15.088,68.467-28.301l21.621,12.964c5.918,3.53,13.447,2.607,18.325-2.256l42.422-42.422
			c4.863-4.863,5.801-12.422,2.256-18.325l-12.964-21.621c13.213-21.108,22.705-44.063,28.301-68.467l25.536-6.138
			C507.313,298.876,512,292.885,512,286v-60C512,219.115,507.312,213.124,500.647,211.454z M256,391c-74.443,0-135-60.557-135-135
			s60.557-135,135-135s135,60.557,135,135S330.443,391,256,391z"/>
	</g>
</g>
<g>
	<g>
		<path d="M256,151c-24.814,0-45,20.186-45,45c0,24.814,20.186,45,45,45c24.814,0,45-20.186,45-45C301,171.186,280.814,151,256,151z
			"/>
	</g>
</g>
<g>
	<g>
		<path d="M315.617,241c-13.705,18.104-35.213,30-59.617,30s-45.912-11.896-59.617-30C186.865,253.574,181,269.052,181,286v30
			c0,8.291,6.709,15,15,15h120c8.291,0,15-6.709,15-15v-30C331,269.052,325.135,253.574,315.617,241z"/>
	</g>
</g>
<g>
</g>
<g>
</g>
<g>
</g>
<g>
</g>
<g>
</g>
<g>
</g>
<g>
</g>
<g>
</g>
<g>
</g>
<g>
</g>
<g>
</g>
<g>
</g>
<g>
</g>
<g>
</g>
<g>
</g>
</svg>
