<svg xmlns="http://www.w3.org/2000/svg" xmlns:xlink="http://www.w3.org/1999/xlink" width="16" height="16" viewBox="0 0 16 16">
    <defs>
        <path id="a" d="M15.996 8.002a7.893 7.893 0 0 1-.1 1.213.978.978 0 0 1-.638.776l-1.07.379c-.043.115-.089.227-.138.337l.489 1.022a.973.973 0 0 1-.094 1 8.05 8.05 0 0 1-1.71 1.719.974.974 0 0 1-1 .094l-1.024-.486c-.112.05-.224.096-.338.139l-.378 1.066a.971.971 0 0 1-.775.638A8.298 8.298 0 0 1 8.001 16a7.886 7.886 0 0 1-1.218-.1.978.978 0 0 1-.772-.638l-.379-1.069a6.573 6.573 0 0 1-.337-.138l-1.022.485a.974.974 0 0 1-1.001-.093 7.983 7.983 0 0 1-1.719-1.716.98.98 0 0 1-.093-1l.488-1.022a6.996 6.996 0 0 1-.139-.337l-1.067-.38a.975.975 0 0 1-.641-.776A7.913 7.913 0 0 1 0 8c0-.414.043-.827.125-1.214a.978.978 0 0 1 .638-.777l1.063-.375c.044-.115.09-.227.139-.338l-.483-1.021a.974.974 0 0 1 .094-1.001 7.978 7.978 0 0 1 1.722-1.716.974.974 0 0 1 1.001-.094l1.017.485c.111-.05.224-.097.338-.14L6.032.74A.97.97 0 0 1 6.8.104 7.229 7.229 0 0 1 9.235.103c.355.055.652.3.772.64l.378 1.068c.115.043.227.09.338.138l1.022-.485a.975.975 0 0 1 1.002.093 8.121 8.121 0 0 1 1.719 1.715.98.98 0 0 1 .093.999l-.489 1.024c.05.113.096.224.138.336l1.069.379c.34.12.585.42.638.776.069.405.096.816.081 1.216zm-4.762-.155a3.225 3.225 0 1 0-3.232 3.222 3.23 3.23 0 0 0 3.232-3.222z"/>
    </defs>
    <g fill="none" fill-rule="evenodd">
        <mask id="b" fill="#fff">
            <use xlink:href="#a"/>
        </mask>
        <use fill="#2A3749" fill-rule="nonzero" xlink:href="#a"/>
        <g fill="#fff" mask="url(#b)">
            <path d="M0 0h16v16H0z"/>
        </g>
    </g>
</svg>
