<svg xmlns="http://www.w3.org/2000/svg" xmlns:xlink="http://www.w3.org/1999/xlink" width="16" height="16" viewBox="0 0 16 16">
    <defs>
        <path id="a" d="M13.865 11.44a1.355 1.355 0 0 1-1.25 1.881h-9.23a1.355 1.355 0 0 1-1.249-1.88c.515-1.22.817-2.517.817-3.84v-.308a5.056 5.056 0 0 1 3.85-4.903A1.357 1.357 0 0 1 8.037.4c.7.019 1.279.581 1.317 1.28.014.257-.044.5-.156.71a5.056 5.056 0 0 1 3.85 4.903v.308c0 1.323.302 2.62.817 3.84zM8 2.246a.49.49 0 1 0 0-.982.49.49 0 0 0 0 .982zM8.015 15.6c-1.07 0-1.97-.741-2.213-1.738h4.426A2.282 2.282 0 0 1 8.015 15.6z"/>
    </defs>
    <g fill="none" fill-rule="evenodd">
        <mask id="b" fill="#fff">
            <use xlink:href="#a"/>
        </mask>
        <use fill="#000" fill-rule="nonzero" xlink:href="#a"/>
        <g fill="#2A3749" mask="url(#b)">
            <path d="M0 0h16v16H0z"/>
        </g>
    </g>
</svg>
