<svg xmlns="http://www.w3.org/2000/svg" xmlns:xlink="http://www.w3.org/1999/xlink" width="16" height="16" viewBox="0 0 16 16">
    <defs>
        <path id="a" d="M2.544 4.573c-.95 0-1.72-.77-1.72-1.72V1.81c0-.95.77-1.72 1.72-1.72h5.79c.95 0 1.72.77 1.72 1.72v1.042c0 .95-.77 1.72-1.72 1.72h-5.79zm9.511 1.076c.95 0 1.72.77 1.72 1.72V8.41c0 .95-.77 1.72-1.72 1.72h-9.51c-.95 0-1.72-.77-1.72-1.72V7.368c0-.95.77-1.72 1.72-1.72h9.51zm-7.217 5.558c.95 0 1.72.77 1.72 1.72v1.042c0 .95-.77 1.72-1.72 1.72H2.544c-.95 0-1.72-.77-1.72-1.72v-1.042c0-.95.77-1.72 1.72-1.72h2.294z"/>
    </defs>
    <g fill="none" fill-rule="evenodd">
        <mask id="b" fill="#fff">
            <use xlink:href="#a"/>
        </mask>
        <use fill="#353C42" xlink:href="#a"/>
        <g fill="#fff" mask="url(#b)">
            <path d="M0 0h16v16H0z"/>
        </g>
    </g>
</svg>
