<svg xmlns="http://www.w3.org/2000/svg" width="32" height="32" viewBox="0 0 32 32">
    <g fill="none" fill-rule="nonzero">
        <rect width="32" height="32" fill="#00dfa5" rx="3"/>
        <path fill="#FFF" d="M16 7c.27 0 .49.23.49.516v10.83l3.203-3.378a.476.476 0 0 1 .495-.194.503.503 0 0 1 .374.394.53.53 0 0 1-.184.523l-4.036 4.255a.454.454 0 0 1-.342.158.454.454 0 0 1-.342-.158l-4.036-4.255a.537.537 0 0 1 .046-.675.47.47 0 0 1 .64-.048l3.203 3.379V7.516C15.51 7.23 15.73 7 16 7zm9 11.76v4.177c0 1.14-.876 2.063-1.957 2.063H8.957C7.876 25 7 24.076 7 22.937v-3.868c0-.285.219-.516.49-.516.27 0 .488.23.488.516v3.868c0 .57.438 1.031.979 1.031h14.086c.54 0 .979-.461.979-1.031v-4.178c0-.285.219-.515.489-.515s.489.23.489.515z"/>
    </g>
</svg>
