<svg xmlns="http://www.w3.org/2000/svg" width="56" height="56" viewBox="0 0 56 56">
    <g fill="none" fill-rule="evenodd">
        <rect width="56" height="56" fill="#00dfa5" fill-rule="nonzero" rx="4"/>
        <path fill="#FFF" d="M38.426 25.205l-2.35 10.571a.286.286 0 0 1-.279.224h-18.01a.286.286 0 0 1-.278-.35l2.44-10.571a.286.286 0 0 1 .278-.222h17.92a.286.286 0 0 1 .279.348zM17.286 20h4.157c.067 0 .132.023.183.066l1.397 1.164a.857.857 0 0 0 .548.199h12c.158 0 .286.128.286.285v2a.286.286 0 0 1-.286.286h-15.6c-.4 0-.748.277-.836.668l-1.965 8.685a.086.086 0 0 1-.17-.02V20.287c0-.158.128-.286.286-.286z"/>
    </g>
</svg>
