<svg xmlns="http://www.w3.org/2000/svg" xmlns:xlink="http://www.w3.org/1999/xlink" width="34" height="34" viewBox="0 0 34 34">
    <defs>
        <path id="a" d="M20.203.34c-.41-.454-1.089-.454-1.513 0a1.21 1.21 0 0 0 0 1.61l7.667 8.238H1.06c-.59 0-1.061.505-1.061 1.14 0 .63.47 1.155 1.061 1.155h25.296L18.69 20.7c-.408.455-.408 1.19 0 1.625.424.454 1.103.454 1.513 0l9.48-10.188c.423-.44.423-1.17 0-1.604L20.203.34z"/>
        <linearGradient id="c" x1="7.137%" y1="50%" y2="50%">
            <stop offset="0%" stop-color="#ffffff"/>
            <stop offset="100%" stop-color="#ffffff"/>
        </linearGradient>
    </defs>
    <g fill="none" fill-rule="evenodd" transform="translate(2 6)">
        <mask id="b" fill="#fff">
            <use xlink:href="#a"/>
        </mask>
        <use fill="#ffffff" xlink:href="#a"/>
        <g fill="url(#c)" mask="url(#b)">
            <rect width="36" height="34" rx="5" transform="translate(-3 -6.375)"/>
        </g>
    </g>
</svg>
