<svg xmlns="http://www.w3.org/2000/svg" width="23" height="12" viewBox="0 0 23 12">
    <path fill="#B6B6B6" fill-rule="nonzero" d="M22.933 5.621c.098.131.098.295-.066.394L21.291 7.62a13.74 13.74 0 0 1-19.64 0L.073 6.015a.299.299 0 0 1 0-.394L1.519 4.18a14.016 14.016 0 0 1 19.969 0l1.445 1.442zm-9.18.001l-1.673.055.955-1.376-.937-.55-.846 1.486-.845-1.486-.938.55.956 1.376-1.673-.055V6.65l1.673-.055L9.47 7.97l.938.55.845-1.485.846 1.486.937-.55-.955-1.376 1.672.055V5.622z" opacity=".5"/>
</svg>
