<svg xmlns="http://www.w3.org/2000/svg" xmlns:xlink="http://www.w3.org/1999/xlink" width="117" height="45" viewBox="0 0 117 45">
    <defs>
        <path id="a" d="M0 0h116.25v45H0z"/>
        <linearGradient id="c" x1="0%" y1="50%" y2="50%">
            <stop offset="0%" stop-color="#00DC9A"/>
            <stop offset="100%" stop-color="#00EEE7"/>
        </linearGradient>
        <linearGradient id="d" x1="20.405%" x2="79.677%" y1="55.523%" y2="44.461%">
            <stop offset="0%" stop-color="#00DC9A"/>
            <stop offset="0%" stop-color="#00DC9A"/>
            <stop offset="100%" stop-color="#00EEE7"/>
        </linearGradient>
    </defs>
    <g fill="none" fill-rule="evenodd">
        <mask id="b" fill="#fff">
            <use xlink:href="#a"/>
        </mask>
        <g mask="url(#b)">
            <path fill="#2A3749" fill-rule="nonzero" d="M45.717 24.108c0-2.16-1.521-3.589-3.5-3.589-1.977 0-3.499 1.43-3.499 3.59 0 2.159 1.522 3.588 3.5 3.588s3.5-1.43 3.5-3.589m-11.565 0c0-4.532 3.591-8.03 8.065-8.03 4.473 0 8.064 3.498 8.064 8.03 0 4.533-3.59 8.03-8.064 8.03s-8.065-3.497-8.065-8.03"/>
            <path fill="#2A3749" d="M16.872 11.449h4.598v15.297h-4.598z"/>
            <path fill="#2A3749" fill-rule="nonzero" d="M14.601 11.49V26.78h-4.556v-1.437c-.82 1.131-2.338 1.865-4.343 1.865-3.067 0-5.68-2.202-5.68-6.33v-9.386h4.556v8.714c0 1.896 1.185 2.782 2.643 2.782 1.67 0 2.824-.978 2.824-3.149v-8.347h4.556zM68.889 11.49V26.78h-4.556v-1.437c-.82 1.131-2.338 1.865-4.344 1.865-3.067 0-5.68-2.202-5.68-6.33v-9.386h4.557v8.714c0 1.896 1.184 2.782 2.642 2.782 1.67 0 2.825-.978 2.825-3.149v-8.347h4.556zM81.04 26.703l-2.831-4.032-2.83 4.032h-5.235l5.448-7.758-5.265-7.513h5.235l2.647 3.787 2.648-3.787h5.234l-5.265 7.513 5.448 7.758zM90.604 25.373c0 .792-.663 1.13-1.378 1.13-.662 0-1.166-.262-1.424-.82l.86-.51c.087.261.272.406.564.406.238 0 .358-.076.358-.213 0-.38-1.63-.18-1.63-1.371 0-.751.61-1.13 1.298-1.13.537 0 1.014.248 1.292.737l-.848.475c-.092-.179-.225-.303-.444-.303-.172 0-.278.07-.278.193 0 .393 1.63.131 1.63 1.406M93.537 24.577c0-.478-.343-.795-.79-.795a.763.763 0 0 0-.79.795c0 .479.344.795.79.795.447 0 .79-.316.79-.795m-2.61 0c0-1.003.811-1.778 1.82-1.778 1.01 0 1.82.775 1.82 1.778 0 1.004-.81 1.778-1.82 1.778-1.009 0-1.82-.774-1.82-1.778"/>
            <path fill="#2A3749" d="M94.955 21.386h.972v4.923h-.972z"/>
            <path fill="#2A3749" fill-rule="nonzero" d="M100.023 22.9v3.367h-1.017v-.317c-.183.25-.522.412-.97.412-.684 0-1.267-.485-1.267-1.395V22.9h1.017v1.919c0 .418.264.613.59.613.372 0 .63-.215.63-.694V22.9h1.017zM101.972 23.937v1.199c0 .291.247.318.686.291v.921c-1.305.135-1.685-.264-1.685-1.212v-1.199h-.532v-.975h.532v-.643l1-.304v.947h.685v.975h-.686zM103.313 22.896h1.04v3.372h-1.04v-3.372zm-.103-.904c0-.33.283-.607.623-.607s.623.277.623.607c0 .33-.284.607-.623.607a.622.622 0 0 1-.623-.607zM107.483 24.577c0-.478-.343-.795-.79-.795a.763.763 0 0 0-.789.795c0 .479.343.795.79.795.446 0 .79-.316.79-.795m-2.61 0c0-1.003.81-1.778 1.82-1.778s1.82.775 1.82 1.778c0 1.004-.81 1.778-1.82 1.778s-1.82-.774-1.82-1.778M112.19 24.261v2.067h-1.016V24.41c0-.417-.264-.613-.59-.613-.373 0-.63.216-.63.694v1.838h-1.017v-3.367h1.016v.317c.184-.25.523-.411.97-.411.685 0 1.268.485 1.268 1.394M115.408 25.373c0 .792-.663 1.13-1.378 1.13-.663 0-1.166-.262-1.425-.82l.861-.51c.087.261.272.406.564.406.238 0 .357-.076.357-.213 0-.38-1.63-.18-1.63-1.371 0-.751.61-1.13 1.299-1.13.537 0 1.014.248 1.292.737l-.848.475c-.093-.179-.225-.303-.444-.303-.172 0-.278.07-.278.193 0 .393 1.63.131 1.63 1.406"/>
            <path fill="url(#c)" fill-rule="nonzero" d="M26.878.03L44.5 17.719 17.622 44.696 0 27.01 26.878.03zM6.63 26.876L17.755 38.04 37.87 17.852 26.744 6.686 6.63 26.875z" transform="scale(1 -1) rotate(-45 -20.094 -18.882)"/>
            <path fill="url(#d)" d="M.035.02H24.92v4.627H.035z" transform="matrix(1 0 0 -1 26.525 45.39)"/>
            <g>
                <path fill="#2A3749" fill-rule="nonzero" d="M33.282 22.554c-1.371.002-2.124-.275-2.124-1.35v-5.41h3.13v-4.402h-3.13V7.113L26.601 8.49v2.903h-2.43v4.402h2.43v5.41c0 4.088 1.584 5.915 6.917 5.536-.45-1.382-.373-3.056-.236-4.186"/>
            </g>
        </g>
        <g mask="url(#b)">
            <g transform="translate(79.2 28.8)">
                <rect width="36" height="16.2" x=".382" y=".195" fill="#2A3749" fill-rule="nonzero" rx="2"/>
                <text font-family="Gilroy-SemiBold, Gilroy" font-size="13" font-weight="500">
                    <tspan x="5.382" y="12.795" fill="#FFF">PMS</tspan>
                </text>
            </g>
        </g>
    </g>
</svg>
